:version 1.10
:name ASF
:units
  mass 1
  length 1
  angle deg
:documentation
  ASF file generated by Kaydara
:root
  axis xyz
  order  tx ty tz rx ry rz
  position 0 0 0
  orientation 0 0 0
:bonedata
  begin
    id 1
    name RightUpLegDummy
    direction -0.718183 -0.695806 0.00816078
    length 4.904
    axis 0 0 0 xyz
  end
  begin
    id 2
    name RightUpLeg
    direction -0.0736652 -0.994202 0.0783343
    length 17.4976
    axis -2.72909 -3.00389 -4.00133 xyz
    dof rx ry rz
  end
  begin
    id 3
    name RightLeg
    direction -0.0389037 -0.994596 -0.0962598
    length 16.5821
    axis 3.95836 -18.5909 -4.46993 xyz
    dof rx ry rz
  end
  begin
    id 4
    name RightFoot
    direction -0.311643 -0.412678 0.855906
    length 3.77069
    axis -1.99483 -18.8351 -3.27644 xyz
    dof rx ry rz
  end
  begin
    id 5
    name RightToes
    direction -0.317852 0.0389852 0.947339
    length 3.85082
    axis -2.00228 -18.1713 -3.25211 xyz
    dof rx ry rz
  end
  begin
    id 6
    name SpineDummy
    direction 8.3039e-015 1 4.44677e-016
    length 4.6813
    axis 0 0 0 xyz
  end
  begin
    id 7
    name Spine
    direction -0.000262373 0.999988 0.00493267
    length 10.1015
    axis -0.00246081 0.00062579 0.0150362 xyz
    dof rx ry rz
  end
  begin
    id 8
    name Spine1
    direction 0 0 0
    length 0
    axis -0.00349562 0.000650293 0.0196666 xyz
    dof rx ry rz
  end
  begin
    id 9
    name HEadDummy
    direction -0.000343232 0.999999 0.00123745
    length 3.43865
    axis -0.00349562 0.000650293 0.0196666 xyz
  end
  begin
    id 10
    name HEad
    direction -0.0461221 0.980933 0.188796
    length 5.12695
    axis -0.00351404 -7.04812 0.0199272 xyz
    dof rx ry rz
  end
  begin
    id 11
    name LeftShoulder1Dummy
    direction 0.998904 -0.0399089 -0.0244534
    length 3.5433
    axis -0.00349562 0.000650293 0.0196666 xyz
  end
  begin
    id 12
    name LeftShoulder1
    direction 0.99951 1.64443e-005 0.0312999
    length 4.05031
    axis -0.00349562 0.000650293 0.0196666 xyz
    dof rx ry rz
  end
  begin
    id 13
    name LeftArm
    direction 0.984791 0.0515299 0.165927
    length 12.9126
    axis -64.823 -10.7743 5.20463 xyz
    dof rx ry rz
  end
  begin
    id 14
    name LeftForeArm
    direction 0.984968 0.0534808 0.16425
    length 10.8596
    axis -30.0462 -7.70601 1.87451 xyz
    dof rx ry rz
  end
  begin
    id 15
    name LeftHand
    direction 0.975871 0.0289682 0.216418
    length 6.62295
    axis -20.1348 -6.98077 1.86072 xyz
    dof rx ry rz
  end
  begin
    id 16
    name RightShoulderDummy
    direction -0.998877 -0.0405946 -0.0244307
    length 3.5433
    axis -0.00349562 0.000650293 0.0196666 xyz
  end
  begin
    id 17
    name RightShoulder
    direction -0.998933 -0.0249743 -0.0388558
    length 4.05031
    axis -0.0205316 -4.02113 1.41395 xyz
    dof rx ry rz
  end
  begin
    id 18
    name RightArm
    direction -0.997559 0.068664 0.0127103
    length 12.9638
    axis -67.3882 1.84188 -6.15987 xyz
    dof rx ry rz
  end
  begin
    id 19
    name RightForeArm
    direction -0.991508 0.0912848 0.0926241
    length 10.8312
    axis -22.1975 3.41087 -4.28711 xyz
    dof rx ry rz
  end
  begin
    id 20
    name RightHand
    direction -0.989262 0.0600788 0.133232
    length 6.57864
    axis -12.2911 2.17515 -4.39675 xyz
    dof rx ry rz
  end
  begin
    id 21
    name LeftUpLegDummy
    direction 0.718183 -0.695806 0.00816078
    length 4.904
    axis 0 0 0 xyz
  end
  begin
    id 22
    name LeftUpLeg
    direction 0.0831398 -0.99469 0.0606531
    length 17.4976
    axis -1.71016 2.29552 4.63832 xyz
    dof rx ry rz
  end
  begin
    id 23
    name LeftLeg
    direction 0.0498442 -0.991778 -0.117862
    length 16.5821
    axis 5.13757 15.5727 5.13348 xyz
    dof rx ry rz
  end
  begin
    id 24
    name LeftFoot
    direction 0.269026 -0.433896 0.85986
    length 3.77069
    axis -0.576502 15.6961 4.10267 xyz
    dof rx ry rz
  end
  begin
    id 25
    name LeftToes
    direction 0.277311 0.0251143 0.960452
    length 3.85048
    axis -0.576502 15.6961 4.10267 xyz
    dof rx ry rz
  end
:hierarchy
  begin
    root RightUpLegDummy SpineDummy LeftUpLegDummy
    RightUpLegDummy RightUpLeg
    RightUpLeg RightLeg
    RightLeg RightFoot
    RightFoot RightToes
    SpineDummy Spine
    Spine Spine1
    Spine1 HEadDummy LeftShoulder1Dummy RightShoulderDummy
    HEadDummy HEad
    LeftShoulder1Dummy LeftShoulder1
    LeftShoulder1 LeftArm
    LeftArm LeftForeArm
    LeftForeArm LeftHand
    RightShoulderDummy RightShoulder
    RightShoulder RightArm
    RightArm RightForeArm
    RightForeArm RightHand
    LeftUpLegDummy LeftUpLeg
    LeftUpLeg LeftLeg
    LeftLeg LeftFoot
    LeftFoot LeftToes
  end

:SAMPLES-PER-SECOND 30
:FULLY-SPECIFIED
:DEGREES
123
root  -8.03789 39.6148 34.7956 -3.72166 -7.69992 -1.41169
RightUpLeg  -7.31123 -1.05524 4.25234
RightLeg  14.9344 -1.22244 -2.19917
RightFoot  -10.3177 -0.0686602 3.8412
RightToes  -5.82073e-011 -3.18055e-015 -2.98177e-016
Spine  4.74286 0.81231 4.68526
Spine1  3.81669 0.831421 2.48467
HEad  -14.5682 3.53459 -0.458259
LeftShoulder1  -3.88251e-019 9.70628e-020 -3.87848e-018
LeftArm  -0.913196 18.0204 -79.92
LeftForeArm  -29.3952 -70.2971 32.6355
LeftHand  -2.56392 -11.904 17.7648
RightShoulder  6.0274 9.69687 29.4159
RightArm  22.6151 -17.717 50.0501
RightForeArm  -49.2118 62.3693 -51.9275
RightHand  -2.70532 8.67417 -22.0114
LeftUpLeg  -7.7745 -1.17356 0.260754
LeftLeg  18.5496 8.55947 9.1996
LeftFoot  -7.4217 0.120126 -2.82765
LeftToes  5.79026e-011 9.70705e-012 -3.73859e-011
124
root  -8.01715 39.6185 34.7841 -3.64964 -7.40832 -1.28725
RightUpLeg  -7.50917 -1.33604 4.04921
RightLeg  15.0697 -1.14626 -2.23012
RightFoot  -9.90826 -0.0851212 3.8841
RightToes  -5.82073e-011 -3.18055e-015 -2.98177e-016
Spine  5.89206 0.689061 4.66596
Spine1  2.12864 0.803688 2.09947
HEad  -13.9872 3.7461 -0.022655
LeftShoulder1  -3.88251e-019 9.70628e-020 -3.87848e-018
LeftArm  -1.91348 15.421 -81.6923
LeftForeArm  -27.7946 -67.9635 28.1262
LeftHand  -3.27996 -12.1032 22.2508
RightShoulder  5.876 9.6559 28.6636
RightArm  20.8705 -14.4737 54.2246
RightForeArm  -44.1171 60.7036 -47.6024
RightHand  -3.16349 8.42828 -26.0455
LeftUpLeg  -7.84997 -0.427088 0.152621
LeftLeg  18.2118 7.80926 8.79338
LeftFoot  -6.88231 0.10289 -2.23345
LeftToes  5.79026e-011 9.70705e-012 -3.73859e-011
125
root  -7.99114 39.6263 34.7885 -3.61671 -6.96887 -1.13621
RightUpLeg  -7.6056 -1.71478 3.78423
RightLeg  15.172 -1.11442 -2.25027
RightFoot  -9.70394 -0.0942244 3.92978
RightToes  -5.82073e-011 -3.18055e-015 -2.98177e-016
Spine  6.73219 0.43285 4.8103
Spine1  0.960516 0.710161 1.28487
HEad  -13.4782 3.82545 0.582273
LeftShoulder1  -3.88251e-019 9.70628e-020 -3.87848e-018
LeftArm  -2.76776 13.5239 -83.1762
LeftForeArm  -23.6459 -63.7824 22.5875
LeftHand  -4.10555 -12.8975 26.4162
RightShoulder  5.64767 9.63443 27.4346
RightArm  18.5717 -12.7801 58.3376
RightForeArm  -36.0954 57.1802 -40.5681
RightHand  -3.454 8.67615 -27.8666
LeftUpLeg  -7.86359 0.201746 -0.015678
LeftLeg  17.934 6.88801 8.36056
LeftFoot  -6.80874 0.0916587 -2.00431
LeftToes  5.79026e-011 9.70705e-012 -3.73859e-011
126
root  -7.95082 39.6219 34.8114 -3.78029 -6.42996 -1.04068
RightUpLeg  -7.48658 -2.34009 3.48918
RightLeg  15.3951 -0.971196 -2.2292
RightFoot  -9.65743 -0.0998731 4.05458
RightToes  -5.82073e-011 -3.18055e-015 -2.98177e-016
Spine  7.01216 0.250511 5.141
Spine1  0.997621 0.716195 0.326577
HEad  -13.2877 3.48317 1.22076
LeftShoulder1  -3.88251e-019 9.70628e-020 -3.87848e-018
LeftArm  -2.90275 11.9609 -84.3607
LeftForeArm  -17.9711 -57.3908 17.162
LeftHand  -4.76176 -13.9466 28.8568
RightShoulder  5.41901 9.62106 26.1768
RightArm  16.4985 -12.2474 61.2246
RightForeArm  -29.1297 52.3256 -33.4481
RightHand  -3.49454 8.93958 -27.682
LeftUpLeg  -7.74267 0.384 -0.173435
LeftLeg  17.8802 6.20004 8.10185
LeftFoot  -6.80007 0.0921844 -2.00576
LeftToes  5.79026e-011 9.70705e-012 -3.73859e-011
127
root  -7.89664 39.582 34.8412 -4.04584 -5.85759 -0.974429
RightUpLeg  -7.46552 -3.46645 3.19035
RightLeg  16.0613 -0.313263 -2.2553
RightFoot  -9.68055 -0.0971541 3.99445
RightToes  -5.82073e-011 -3.18055e-015 -2.98177e-016
Spine  7.34011 0.234128 5.35281
Spine1  1.15358 0.836423 -0.261329
HEad  -13.1064 2.94816 1.73595
LeftShoulder1  -3.88251e-019 9.70628e-020 -3.87848e-018
LeftArm  -2.26794 11.6569 -85.2407
LeftForeArm  -13.45 -49.9784 12.986
LeftHand  -4.50297 -13.9796 27.2578
RightShoulder  5.36468 9.64877 25.8158
RightArm  15.9295 -13.0487 61.6403
RightForeArm  -24.7171 47.0001 -27.5702
RightHand  -3.15921 8.50996 -25.8453
LeftUpLeg  -7.75444 0.140045 -0.357756
LeftLeg  18.3148 5.88943 8.16148
LeftFoot  -6.91316 0.0851383 -1.90015
LeftToes  5.79026e-011 9.70705e-012 -3.73859e-011
128
root  -7.84072 39.5023 34.8704 -4.19509 -5.3067 -0.865264
RightUpLeg  -7.85594 -5.30428 2.94106
RightLeg  17.2011 1.20952 -2.37758
RightFoot  -9.66766 -0.0751999 3.27688
RightToes  -5.82073e-011 -3.18055e-015 -2.98177e-016
Spine  8.0168 0.290426 5.28135
Spine1  0.716116 0.950198 -0.450254
HEad  -12.8132 2.55499 2.11973
LeftShoulder1  -3.88251e-019 9.70628e-020 -3.87848e-018
LeftArm  -1.31474 13.6656 -85.514
LeftForeArm  -11.6785 -43.4195 10.1911
LeftHand  -3.10733 -12.4242 20.6201
RightShoulder  5.59275 9.79676 26.803
RightArm  16.9852 -15.6701 59.2553
RightForeArm  -21.8077 42.076 -23.2757
RightHand  -2.57782 7.52341 -22.7939
LeftUpLeg  -8.13411 -0.210543 -0.613726
LeftLeg  19.2238 5.64811 8.42274
LeftFoot  -7.2508 0.0652286 -1.65536
LeftToes  5.79026e-011 9.70705e-012 -3.73859e-011
129
root  -7.79267 39.4085 34.9132 -4.26557 -4.86565 -0.62246
RightUpLeg  -8.47051 -7.84356 2.7186
RightLeg  18.4725 3.60053 -2.54651
RightFoot  -9.54764 -0.0325597 1.83476
RightToes  -5.82073e-011 -3.18055e-015 -2.98177e-016
Spine  8.51986 0.342404 4.95405
Spine1  0.787758 1.02667 -0.574179
HEad  -12.9506 2.37516 2.46114
LeftShoulder1  -3.88251e-019 9.70628e-020 -3.87848e-018
LeftArm  -0.274342 17.7499 -84.7359
LeftForeArm  -12.2223 -38.3739 8.35099
LeftHand  -1.50386 -9.79266 12.0499
RightShoulder  6.01898 10.0518 28.6403
RightArm  18.8196 -19.9493 54.6363
RightForeArm  -19.0241 38.1144 -20.404
RightHand  -2.06796 6.5054 -19.9344
LeftUpLeg  -8.58242 -0.390339 -0.989687
LeftLeg  20.1755 5.27459 8.64527
LeftFoot  -7.6373 0.0485833 -1.4523
LeftToes  5.79026e-011 9.70705e-012 -3.73859e-011
130
root  -7.75485 39.3261 34.9842 -4.50056 -4.56847 -0.217594
RightUpLeg  -8.89212 -10.6131 2.42163
RightLeg  19.6267 6.30942 -2.7592
RightFoot  -9.41255 0.018198 0.223427
RightToes  -5.82073e-011 -3.18055e-015 -2.98177e-016
Spine  8.71023 0.391118 4.42243
Spine1  2.12974 1.10602 -0.738681
HEad  -13.8557 2.32533 2.77126
LeftShoulder1  -3.88251e-019 9.70628e-020 -3.87848e-018
LeftArm  1.13304 23.1109 -82.8514
LeftForeArm  -13.4588 -34.1131 7.00923
LeftHand  -0.665113 -7.31391 6.67871
RightShoulder  6.49239 10.3 30.6722
RightArm  20.8348 -25.3241 48.4086
RightForeArm  -15.9452 34.9142 -18.3906
RightHand  -1.76568 5.48252 -18.6364
LeftUpLeg  -8.64038 -0.411462 -1.50645
LeftLeg  20.8575 4.96234 8.7817
LeftFoot  -7.95606 0.0380868 -1.32557
LeftToes  5.79026e-011 9.70705e-012 -3.73859e-011
131
root  -7.72638 39.2625 35.0764 -4.92488 -4.34306 0.224338
RightUpLeg  -8.97702 -12.6933 2.02536
RightLeg  20.5975 8.36439 -3.02383
RightFoot  -9.4243 0.0554683 -0.895842
RightToes  -5.82073e-011 -3.18055e-015 -2.98177e-016
Spine  9.31057 0.385951 3.81072
Spine1  3.57588 1.12735 -0.807677
HEad  -15.017 2.45723 2.98163
LeftShoulder1  -3.88251e-019 9.70628e-020 -3.87848e-018
LeftArm  2.12336 29.7508 -80.1399
LeftForeArm  -13.5064 -29.8963 5.55558
LeftHand  -0.633605 -5.93167 6.99756
RightShoulder  6.97028 10.4833 32.7849
RightArm  22.5637 -31.5289 40.6787
RightForeArm  -12.0806 31.5421 -16.4948
RightHand  -1.64878 4.68417 -18.7421
LeftUpLeg  -8.30131 -0.530497 -2.05707
LeftLeg  21.2929 4.93614 8.93773
LeftFoot  -8.25291 0.0287145 -1.20664
LeftToes  5.79026e-011 9.70705e-012 -3.73859e-011
132
root  -7.70161 39.2361 35.1735 -5.20949 -4.18012 0.545491
RightUpLeg  -8.88915 -13.4152 1.65516
RightLeg  21.1222 9.10978 -3.25393
RightFoot  -9.51999 0.0673885 -1.27148
RightToes  -5.82073e-011 -3.18055e-015 -2.98177e-016
Spine  10.5881 0.223627 3.26825
Spine1  4.01869 0.945435 -0.705833
HEad  -15.8709 3.01797 3.01606
LeftShoulder1  -3.88251e-019 9.70628e-020 -3.87848e-018
LeftArm  -2.02566 38.0057 -76.4615
LeftForeArm  -8.60786 -25.6539 2.2628
LeftHand  -1.00441 -5.39417 11.4083
RightShoulder  7.45141 10.6234 34.9397
RightArm  23.2703 -38.2377 31.4684
RightForeArm  -7.12751 27.0341 -14.2545
RightHand  -1.68439 4.66625 -19.1685
LeftUpLeg  -7.89532 -0.94035 -2.50405
LeftLeg  21.3761 5.21278 9.08493
LeftFoot  -8.39616 0.0226192 -1.10428
LeftToes  5.79026e-011 9.70705e-012 -3.73859e-011
133
root  -7.67126 39.2774 35.2694 -4.96476 -4.24125 0.759407
RightUpLeg  -8.91768 -12.8759 1.43269
RightLeg  20.8308 8.69666 -3.36145
RightFoot  -9.40152 0.0634176 -1.12998
RightToes  -5.82073e-011 -3.18055e-015 -2.98177e-016
Spine  11.7563 -0.0957321 2.76807
Spine1  4.03039 0.526162 -0.445636
HEad  -16.5576 4.20222 2.77397
LeftShoulder1  -3.88251e-019 9.70628e-020 -3.87848e-018
LeftArm  -13.1009 47.3575 -71.315
LeftForeArm  1.18315 -20.8445 -2.44327
LeftHand  -1.32814 -4.98451 15.6501
RightShoulder  7.82662 10.7248 36.5942
RightArm  20.0618 -44.5589 21.2454
RightForeArm  0.0260675 21.2932 -10.9252
RightHand  -1.70418 4.69908 -19.3282
LeftUpLeg  -7.68286 -1.46255 -2.86418
LeftLeg  20.7706 5.78794 9.08248
LeftFoot  -8.13715 0.0213864 -1.00325
LeftToes  5.79026e-011 9.70705e-012 -3.73859e-011
134
root  -7.63287 39.3851 35.364 -4.00363 -4.68233 0.98318
RightUpLeg  -9.36714 -11.4044 1.33329
RightLeg  19.7777 7.5756 -3.28677
RightFoot  -8.89 0.0586659 -0.916245
RightToes  -5.82073e-011 -3.18055e-015 -2.98177e-016
Spine  12.2606 -0.435291 2.26524
Spine1  4.20441 0.0292597 -0.156708
HEad  -17.3534 5.87082 2.2323
LeftShoulder1  -3.88251e-019 9.70628e-020 -3.87848e-018
LeftArm  -20.0008 56.729 -64.9422
LeftForeArm  3.93603 -15.1954 -3.86848
LeftHand  -1.24141 -3.74911 16.5875
RightShoulder  7.95977 10.7443 37.2082
RightArm  10.4776 -49.7357 10.2691
RightForeArm  10.3401 15.0188 -6.58741
RightHand  -1.42202 3.09284 -19.134
LeftUpLeg  -7.83438 -1.67736 -3.22542
LeftLeg  19.4163 6.66079 8.87918
LeftFoot  -7.52511 0.0211814 -0.855157
LeftToes  5.79026e-011 9.70705e-012 -3.73859e-011
135
root  -7.5932 39.5213 35.4457 -2.37674 -5.51269 1.19168
RightUpLeg  -10.4047 -9.32739 1.35324
RightLeg  18.3683 6.2241 -3.02578
RightFoot  -8.16275 0.0519427 -0.699435
RightToes  -5.82073e-011 -3.18055e-015 -2.98177e-016
Spine  12.5106 -0.668134 1.96523
Spine1  3.90624 -0.318382 -0.116675
HEad  -18.0909 7.61615 1.63929
LeftShoulder1  -3.88251e-019 9.70628e-020 -3.87848e-018
LeftArm  -19.0553 65.4503 -56.9218
LeftForeArm  -0.278819 -9.63182 -2.55572
LeftHand  -0.76634 -1.02819 14.8241
RightShoulder  7.84078 10.6597 36.8085
RightArm  9.47664 -54.0496 -1.56871
RightForeArm  9.8711 8.0333 -7.09124
RightHand  -0.847487 -0.310057 -18.8661
LeftUpLeg  -8.47394 -1.36883 -3.52613
LeftLeg  17.6554 7.58556 8.49114
LeftFoot  -6.86712 0.0301978 -0.891164
LeftToes  5.79026e-011 9.70705e-012 -3.73859e-011
136
root  -7.55555 39.648 35.4915 -0.305178 -6.63753 1.24065
RightUpLeg  -11.9647 -7.04398 1.54289
RightLeg  16.9336 4.93383 -2.7038
RightFoot  -7.67018 0.0156388 0.0720687
RightToes  -5.82073e-011 -3.18055e-015 -2.98177e-016
Spine  12.8944 -0.795164 2.06696
Spine1  2.87558 -0.449627 -0.456032
HEad  -18.6543 9.15031 1.3489
LeftShoulder1  -3.88251e-019 9.70628e-020 -3.87848e-018
LeftArm  -12.7024 73.2717 -44.2546
LeftForeArm  -2.3727 -4.6275 -0.676257
LeftHand  -0.33533 1.95908 12.8838
RightShoulder  7.58167 10.5161 35.8341
RightArm  15.5376 -57.199 -15.972
RightForeArm  6.03825 3.58333 -8.62687
RightHand  -0.275897 -3.8279 -18.921
LeftUpLeg  -9.61573 -0.764726 -3.61758
LeftLeg  15.9663 8.32656 8.00866
LeftFoot  -6.4477 0.0756597 -1.59604
LeftToes  5.79026e-011 9.70705e-012 -3.73859e-011
137
root  -7.51384 39.7215 35.472 1.98561 -7.81393 1.09258
RightUpLeg  -14.0766 -5.21473 1.88376
RightLeg  15.9854 3.90032 -2.49921
RightFoot  -7.97319 -0.0540765 1.65588
RightToes  -5.82073e-011 -3.18055e-015 -2.98177e-016
Spine  13.1791 -0.949838 2.45746
Spine1  2.12952 -0.555682 -0.92459
HEad  -19.3332 10.5097 1.36019
LeftShoulder1  -3.88251e-019 9.70628e-020 -3.87848e-018
LeftArm  6.08588 79.2742 -20.3747
LeftForeArm  -1.59003 -1.10987 1.1695
LeftHand  -0.143514 3.64423 11.9953
RightShoulder  7.29854 10.3718 34.7162
RightArm  25.8772 -58.345 -32.2796
RightForeArm  3.78695 2.87786 -9.10438
RightHand  0.0380354 -5.74904 -19.1535
LeftUpLeg  -11.4782 -0.124562 -3.51569
LeftLeg  15.1547 8.93618 7.80065
LeftFoot  -6.70146 0.150873 -3.04273
LeftToes  5.79026e-011 9.70705e-012 -3.73859e-011
